<svg width="49" height="17" viewBox="0 0 49 17" fill="none" xmlns="http://www.w3.org/2000/svg">
<g clip-path="url(#clip0_718_2345)">
<path d="M41.7889 8.54607L35.906 2.6631L30.023 8.54607L24.14 2.6631L18.2623 8.54607L12.3793 2.6631L6.49634 8.54607L0.0620117 2.11174L1.16474 1.00901L6.49634 6.34061L12.3793 0.457642L18.2623 6.34061L24.14 0.457642L30.023 6.34061L35.906 0.457642L41.7889 6.34061L47.1205 1.00901L48.2233 2.11174L41.7889 8.54607Z" fill="#00A3FF"/>
<path d="M41.7889 16.4576L35.906 10.5747L30.023 16.4576L24.14 10.5747L18.2623 16.4576L12.3793 10.5747L6.49634 16.4576L0.0620117 10.0233L1.16474 8.92057L6.49634 14.2522L12.3793 8.3692L18.2623 14.2522L24.14 8.3692L30.023 14.2522L35.906 8.3692L41.7889 14.2522L47.1205 8.92057L48.2233 10.0233L41.7889 16.4576Z" fill="#00A3FF"/>
</g>
<defs>
<clipPath id="clip0_718_2345">
<rect width="48.1612" height="16" fill="white" transform="translate(0.0620117 0.457642)"/>
</clipPath>
</defs>
</svg>
